# xmcd
#
# Track frame offsets:
#	150
#	16724
#	32349
#	50683
#	68370
#	82995
#	98397
#	114462
#	130392
#	145009
#	147178
#	163120
#	180897
#	195911
#	209340
#	223612
#
# Disc length: 3187 seconds
#
# Revision: 0
# Processed by: cddbd v1.5.2PL0 Copyright (c) Steve Scherf et al.
# Submitted via: audiograbber 1.83.01
#
DISCID=c60c7110
DTITLE=FingerPistol - Stepped Ind It Again
DYEAR=2014
DGENRE=Country
TTITLE0=Stepped In It Again
TTITLE1=Country Music Made A Drinker Out Of Me
TTITLE2=Star With A Dance
TTITLE3=Desperate Woman
TTITLE4=Take Back This Heartace
TTITLE5=Hipster Girls
TTITLE6=Bottle Of Whiskey
TTITLE7=Song About Hank Williams
TTITLE8=Empty Out The Tip Jar
TTITLE9=Cherokee Shuffle
TTITLE10=Nice Things
TTITLE11=Never
TTITLE12=Man About Town
TTITLE13=Truck Nutz
TTITLE14=Keep Your Boots On
TTITLE15=Queer For The Rodeo
EXTD=
EXTT0=
EXTT1=
EXTT2=
EXTT3=
EXTT4=
EXTT5=
EXTT6=
EXTT7=
EXTT8=
EXTT9=
EXTT10=
EXTT11=
EXTT12=
EXTT13=
EXTT14=
EXTT15=
PLAYORDER=
